<?xml version="1.0" standalone="no"?>
<!DOCTYPE svg PUBLIC "-//W3C//DTD SVG 20010904//EN"
 "http://www.w3.org/TR/2001/REC-SVG-20010904/DTD/svg10.dtd">
<svg version="1.0" xmlns="http://www.w3.org/2000/svg"
 width="412.000000pt" height="412.000000pt" viewBox="0 0 412.000000 412.000000"
 preserveAspectRatio="xMidYMid meet">
<metadata>
Created by potrace 1.11, written by Peter Selinger 2001-2013
</metadata>
<g transform="translate(0.000000,412.000000) scale(0.100000,-0.100000)"
fill="#000000" stroke="none">
<path d="M2069 4116 c-2 -2 -35 -7 -74 -10 -145 -14 -171 -16 -210 -22 -22 -3
-53 -8 -68 -10 -416 -54 -788 -170 -1036 -325 -284 -177 -439 -407 -480 -714
-13 -92 -2 -357 15 -386 2 -4 6 -24 10 -45 16 -100 95 -332 165 -482 22 -46
39 -85 39 -87 0 -7 154 -282 191 -341 239 -382 535 -760 939 -1198 140 -153
492 -495 503 -490 14 5 436 429 547 549 66 71 127 140 213 240 15 17 38 44 52
60 380 440 706 934 885 1340 59 134 128 359 145 475 4 25 9 54 12 65 2 11 6
74 8 140 6 246 -47 421 -192 625 -48 67 -209 204 -313 267 -150 91 -439 202
-620 239 -13 3 -60 13 -105 23 -44 11 -101 22 -126 25 -25 4 -58 9 -72 11 -15
3 -39 7 -54 10 -16 2 -53 7 -83 11 -30 3 -66 7 -80 10 -14 2 -56 6 -95 9 -38
3 -79 8 -91 10 -12 3 -23 3 -25 1z m-291 -458 c20 -26 25 -91 24 -356 -1 -268
-1 -272 18 -262 26 14 25 1 -3 -41 -14 -21 -32 -35 -49 -37 -46 -5 -52 38 -51
363 1 237 3 292 14 323 9 24 31 29 47 10z m-114 -71 c21 -15 36 -75 28 -114
-7 -39 -101 -128 -154 -145 -39 -14 -43 -18 -44 -49 0 -19 5 -59 11 -89 13
-62 14 -214 2 -226 -4 -4 -14 -1 -22 7 -15 15 -29 73 -40 174 -4 33 -9 68 -10
77 -3 12 -16 222 -17 268 -1 27 4 40 17 40 20 0 35 -38 45 -115 0 -5 14 15 30
45 30 58 72 110 105 128 26 15 28 15 49 -1z m692 -193 c7 -44 12 -121 13 -199
1 -74 10 -76 30 -5 31 108 124 261 156 256 8 -1 21 -8 28 -15 12 -12 12 -28 9
-261 -1 -52 -1 -115 1 -140 2 -40 0 -45 -26 -54 -19 -7 -31 -6 -40 3 -17 17
-18 226 -1 305 7 33 13 74 14 90 0 25 -2 27 -16 15 -38 -32 -134 -269 -134
-333 0 -37 -20 -94 -35 -100 -39 -15 -66 134 -62 333 3 138 15 177 44 148 8
-8 16 -27 19 -43z m-168 29 c4 -10 7 -49 5 -88 -3 -80 10 -177 38 -285 19 -69
19 -75 4 -87 -45 -32 -83 45 -100 206 -3 30 -7 56 -9 58 -2 2 -18 -27 -36 -64
-60 -124 -107 -165 -162 -144 -45 17 -56 93 -27 190 21 72 138 168 211 174 11
1 26 14 34 29 17 32 30 35 42 11z m-461 -584 c6 -13 14 -60 18 -104 7 -96 13
-133 25 -154 7 -14 10 -13 15 4 33 102 93 222 122 245 49 39 66 22 82 -85 12
-79 7 -391 -7 -433 -10 -29 -8 -35 14 -57 13 -13 24 -31 24 -39 0 -19 -23 -33
-28 -18 -2 7 -12 17 -23 23 -16 8 -24 5 -43 -19 -14 -15 -40 -37 -60 -47 -39
-21 -47 -40 -52 -136 -6 -113 45 -172 102 -118 13 12 24 28 24 34 0 7 10 20
22 31 l21 19 -6 -36 c-13 -85 -93 -158 -157 -144 -16 3 -45 24 -64 45 -48 54
-57 127 -31 255 6 26 2 32 -23 47 l-30 18 -4 -38 c-3 -20 -4 -93 -3 -162 1
-69 -3 -131 -8 -137 -12 -16 -53 -17 -63 -2 -10 17 -13 179 -3 239 5 30 12 75
15 100 3 25 8 53 10 63 5 28 -13 19 -36 -19 -65 -104 -104 -213 -124 -348 -11
-69 -43 -82 -65 -28 -24 63 -36 351 -17 428 7 28 31 32 45 6 10 -18 24 -163
23 -240 0 -23 4 -45 9 -48 5 -3 9 3 9 14 0 42 80 211 123 259 11 13 21 35 23
50 1 16 2 31 3 35 2 14 53 68 61 63 4 -2 5 -16 2 -30 -7 -39 25 -112 61 -137
18 -13 33 -23 34 -23 1 0 17 14 35 31 18 18 43 35 54 38 37 11 46 71 58 381 5
125 -1 126 -50 7 -66 -163 -71 -172 -98 -172 -28 0 -47 24 -65 80 -19 64 -30
257 -16 281 10 15 28 6 42 -22z m624 -104 c1 -82 9 -138 29 -220 29 -114 27
-135 -12 -135 -23 0 -53 62 -63 130 -3 25 -8 54 -10 65 -2 11 -4 36 -5 55 -1
33 -3 30 -45 -51 -65 -128 -132 -172 -181 -118 -27 29 -27 119 -1 182 28 67
104 133 177 154 47 14 59 22 69 47 10 27 13 29 25 16 11 -11 16 -44 17 -125z
m597 -227 c6 -7 9 -38 8 -70 l-2 -56 42 0 c46 0 84 -9 84 -20 0 -4 -19 -7 -42
-6 -93 1 -86 19 -82 -209 1 -111 5 -218 9 -237 10 -59 26 -114 37 -128 16 -19
3 -25 -37 -18 -71 14 -93 102 -90 362 1 104 4 196 6 204 3 12 -9 16 -56 18
-109 5 -114 27 -8 31 31 1 60 4 64 6 7 5 24 94 20 109 -2 9 17 26 30 26 4 0
11 -6 17 -12z m-1981 -116 c13 -15 23 -35 23 -44 0 -10 0 -21 1 -25 2 -19 -18
-10 -36 17 -38 56 -106 47 -140 -21 -26 -49 -42 -157 -41 -265 2 -110 17 -169
48 -185 30 -16 63 22 80 91 13 56 30 69 36 28 9 -55 -39 -148 -90 -174 -51
-26 -134 8 -157 65 -45 109 -28 384 29 476 60 97 183 115 247 37z m292 -115
c58 -28 102 -229 71 -323 -33 -98 -93 -154 -160 -149 -59 5 -91 25 -124 79
-27 43 -30 57 -30 125 1 97 30 177 86 231 56 56 97 65 157 37z m1040 3 c64
-28 92 -107 60 -170 -25 -50 -100 -116 -148 -131 -29 -9 -41 -18 -41 -31 0
-26 53 -78 78 -78 23 0 64 45 93 101 11 22 26 39 34 39 34 0 -62 -156 -117
-190 -37 -22 -89 -19 -128 9 -103 72 -88 348 24 431 50 37 92 43 145 20z
m1019 -39 c17 -23 32 -50 32 -59 0 -11 -7 -5 -19 14 -23 37 -58 64 -76 58 -7
-3 -17 -16 -24 -30 -12 -28 -4 -50 56 -140 42 -63 55 -133 36 -197 -30 -102
-135 -111 -205 -16 -22 30 -28 66 -15 102 8 24 12 26 23 15 7 -7 19 -31 26
-53 16 -50 61 -72 84 -40 22 30 17 95 -11 140 -65 107 -77 138 -72 178 5 37
26 62 67 78 28 11 65 -7 98 -50z m-830 25 c6 -13 14 -40 18 -60 6 -37 24 -60
24 -32 0 24 93 116 117 116 33 0 51 -66 44 -169 -2 -44 -22 -8 -31 59 -5 34
-11 65 -15 68 -10 10 -71 -58 -95 -105 -22 -45 -23 -51 -11 -132 22 -166 23
-187 7 -200 -8 -7 -24 -10 -35 -6 -22 7 -35 44 -46 130 -3 28 -8 64 -11 81
-15 94 -26 243 -20 259 9 23 42 18 54 -9z"/>
<path d="M1587 3528 c-43 -44 -97 -137 -97 -169 0 -16 5 -15 43 6 72 41 109
87 115 143 2 30 0 52 -7 56 -6 4 -30 -12 -54 -36z"/>
<path d="M2065 3315 c-59 -42 -82 -83 -90 -161 -12 -122 25 -107 98 41 46 91
66 155 50 155 -5 0 -32 -16 -58 -35z"/>
<path d="M2223 2742 c-55 -36 -84 -89 -90 -167 -6 -64 2 -80 30 -69 16 6 111
189 122 237 9 35 -7 35 -62 -1z"/>
<path d="M1172 2213 c-53 -76 -72 -221 -38 -286 32 -58 96 -75 133 -34 43 45
53 154 23 257 -12 43 -54 90 -80 90 -10 0 -27 -12 -38 -27z"/>
<path d="M2227 2209 c-29 -17 -63 -101 -66 -163 l-2 -55 33 9 c63 19 132 92
141 151 6 37 -20 69 -57 69 -17 0 -39 -5 -49 -11z"/>
</g>
</svg>
